<svg id="Layer_1" data-name="Layer 1" xmlns="http://www.w3.org/2000/svg" viewBox="0 0 350 350"><defs><style>.cls-1{fill:#20014b;}.cls-2{fill:#42cacd;}</style></defs><path id="Path_176" data-name="Path 176" class="cls-1" d="M175,350A175,175,0,1,0,0,175,175,175,0,0,0,175,350"/><g id="Group_20" data-name="Group 20"><path id="Path_177" data-name="Path 177" class="cls-2" d="M231,235H115V224H230.94a5.85,5.85,0,0,1,5.64,5.64,5.62,5.62,0,0,1-5.64,5.36"/><path id="Path_178" data-name="Path 178" class="cls-2" d="M220,257H115V246H219.89a5.62,5.62,0,0,1,5.37,5.64,5.38,5.38,0,0,1-5.37,5.36"/><path id="Path_179" data-name="Path 179" class="cls-2" d="M231.07,93a5.39,5.39,0,0,1,5.37,5.37,5.62,5.62,0,0,1-5.37,5.63H126V93Z"/><path id="Path_180" data-name="Path 180" class="cls-2" d="M231.08,115a5.38,5.38,0,0,1,5.37,5.36,5.63,5.63,0,0,1-5.37,5.64H115V115Z"/><path id="Path_181" data-name="Path 181" class="cls-2" d="M153.29,137a5.86,5.86,0,0,1,5.64,5.64,5.62,5.62,0,0,1-5.64,5.36H104V137Z"/><path id="Path_182" data-name="Path 182" class="cls-2" d="M240.69,202a5.85,5.85,0,0,1,5.64,5.63,5.63,5.63,0,0,1-5.64,5.37H191V202Z"/><path id="Path_183" data-name="Path 183" class="cls-2" d="M219.9,159a5.38,5.38,0,0,1,5.36,5.36A5.6,5.6,0,0,1,219.9,170H115V159Z"/><path id="Path_184" data-name="Path 184" class="cls-2" d="M231,191H126V180H231.15a5.61,5.61,0,0,1,5.36,5.64,5.38,5.38,0,0,1-5.36,5.36"/></g></svg>